<svg xmlns="http://www.w3.org/2000/svg" viewBox="0 0 1920 1080">
  <defs>
    <linearGradient id="bg1-gradient" x1="0%" y1="0%" x2="100%" y2="100%">
      <stop offset="0%" style="stop-color:#ffb7c5;stop-opacity:1" />
      <stop offset="50%" style="stop-color:#ff69b4;stop-opacity:1" />
      <stop offset="100%" style="stop-color:#ffb6c1;stop-opacity:1" />
    </linearGradient>
    <radialGradient id="sakura-glow" cx="50%" cy="50%" r="50%">
      <stop offset="0%" style="stop-color:#fff;stop-opacity:0.3" />
      <stop offset="100%" style="stop-color:#fff;stop-opacity:0" />
    </radialGradient>
  </defs>
  <rect width="100%" height="100%" fill="url(#bg1-gradient)"/>
  <!-- Cherry blossom petals -->
  <g fill="#fff" opacity="0.6">
    <circle cx="200" cy="150" r="8"/>
    <circle cx="400" cy="250" r="6"/>
    <circle cx="650" cy="180" r="10"/>
    <circle cx="900" cy="120" r="7"/>
    <circle cx="1200" cy="200" r="9"/>
    <circle cx="1500" cy="150" r="8"/>
    <circle cx="1700" cy="280" r="6"/>
    <circle cx="300" cy="400" r="7"/>
    <circle cx="550" cy="350" r="9"/>
    <circle cx="800" cy="450" r="8"/>
    <circle cx="1100" cy="380" r="6"/>
    <circle cx="1400" cy="420" r="10"/>
    <circle cx="1650" cy="350" r="7"/>
    <circle cx="180" cy="600" r="8"/>
    <circle cx="450" cy="550" r="6"/>
    <circle cx="700" cy="650" r="9"/>
    <circle cx="950" cy="580" r="7"/>
    <circle cx="1250" cy="620" r="8"/>
    <circle cx="1550" cy="550" r="10"/>
    <circle cx="1800" cy="680" r="6"/>
    <circle cx="250" cy="850" r="9"/>
    <circle cx="500" cy="780" r="7"/>
    <circle cx="750" cy="880" r="8"/>
    <circle cx="1000" cy="820" r="6"/>
    <circle cx="1300" cy="900" r="9"/>
    <circle cx="1600" cy="850" r="7"/>
    <circle cx="1850" cy="950" r="8"/>
  </g>
  <text x="960" y="540" text-anchor="middle" font-family="Arial, sans-serif" font-size="48" fill="#fff" opacity="0.8">樱花少女 Sakura Girl</text>
</svg>
