<svg xmlns="http://www.w3.org/2000/svg" viewBox="0 0 1920 1080">
  <defs>
    <linearGradient id="bg11-gradient" x1="0%" y1="100%" x2="0%" y2="0%">
      <stop offset="0%" style="stop-color:#1a1a2e;stop-opacity:1" />
      <stop offset="50%" style="stop-color:#16213e;stop-opacity:1" />
      <stop offset="100%" style="stop-color:#0f3460;stop-opacity:1" />
    </linearGradient>
  </defs>
  <rect width="100%" height="100%" fill="url(#bg11-gradient)"/>
  <g fill="#00d9ff" opacity="0.3">
    <rect x="100" y="800" width="4" height="280" rx="2"/>
    <rect x="200" y="700" width="4" height="380" rx="2"/>
    <rect x="300" y="850" width="4" height="230" rx="2"/>
    <rect x="450" y="600" width="4" height="480" rx="2"/>
    <rect x="550" y="750" width="4" height="330" rx="2"/>
    <rect x="700" y="650" width="4" height="430" rx="2"/>
    <rect x="850" y="800" width="4" height="280" rx="2"/>
    <rect x="950" y="550" width="4" height="530" rx="2"/>
    <rect x="1100" y="700" width="4" height="380" rx="2"/>
    <rect x="1200" y="800" width="4" height="280" rx="2"/>
    <rect x="1350" y="650" width="4" height="430" rx="2"/>
    <rect x="1450" y="750" width="4" height="330" rx="2"/>
    <rect x="1600" y="600" width="4" height="480" rx="2"/>
    <rect x="1700" y="850" width="4" height="230" rx="2"/>
    <rect x="1850" y="700" width="4" height="380" rx="2"/>
  </g>
  <g fill="#e94560" opacity="0.2">
    <rect x="150" y="850" width="3" height="230" rx="1.5"/>
    <rect x="400" y="750" width="3" height="330" rx="1.5"/>
    <rect x="600" y="800" width="3" height="280" rx="1.5"/>
    <rect x="800" y="700" width="3" height="380" rx="1.5"/>
    <rect x="1000" y="650" width="3" height="430" rx="1.5"/>
    <rect x="1250" y="750" width="3" height="330" rx="1.5"/>
    <rect x="1500" y="800" width="3" height="280" rx="1.5"/>
    <rect x="1750" y="650" width="3" height="430" rx="1.5"/>
  </g>
  <text x="960" y="540" text-anchor="middle" font-family="Arial, sans-serif" font-size="48" fill="#00d9ff" opacity="0.8">赛博朋克 Cyber Punk</text>
</svg>
