<svg xmlns="http://www.w3.org/2000/svg" viewBox="0 0 1920 1080">
  <defs>
    <linearGradient id="bg12-gradient" x1="0%" y1="0%" x2="100%" y2="100%">
      <stop offset="0%" style="stop-color:#ee9ca7;stop-opacity:1" />
      <stop offset="100%" style="stop-color:#ffdde1;stop-opacity:1" />
    </linearGradient>
  </defs>
  <rect width="100%" height="100%" fill="url(#bg12-gradient)"/>
  <g fill="#fff" opacity="0.6">
    <path d="M150,200 Q175,150 200,200 Q225,250 250,200 Q225,150 200,200 Q175,250 150,200 Z"/>
    <path d="M450,150 Q475,100 500,150 Q525,200 550,150 Q525,100 500,150 Q475,200 450,150 Z"/>
    <path d="M750,250 Q775,200 800,250 Q825,300 850,250 Q825,200 800,250 Q775,300 750,250 Z"/>
    <path d="M1050,180 Q1075,130 1100,180 Q1125,230 1150,180 Q1125,130 1100,180 Q1075,230 1050,180 Z"/>
    <path d="M1350,220 Q1375,170 1400,220 Q1425,270 1450,220 Q1425,170 1400,220 Q1375,270 1350,220 Z"/>
    <path d="M1650,160 Q1675,110 1700,160 Q1725,210 1750,160 Q1725,110 1700,160 Q1675,210 1650,160 Z"/>
    <path d="M250,550 Q275,500 300,550 Q325,600 350,550 Q325,500 300,550 Q275,600 250,550 Z"/>
    <path d="M550,480 Q575,430 600,480 Q625,530 650,480 Q625,430 600,480 Q575,530 550,480 Z"/>
    <path d="M850,600 Q875,550 900,600 Q925,650 950,600 Q925,550 900,600 Q875,650 850,600 Z"/>
    <path d="M1150,520 Q1175,470 1200,520 Q1225,570 1250,520 Q1225,470 1200,520 Q1175,570 1150,520 Z"/>
    <path d="M1450,580 Q1475,530 1500,580 Q1525,630 1550,580 Q1525,530 1500,580 Q1475,630 1450,580 Z"/>
    <path d="M1750,500 Q1775,450 1800,500 Q1825,550 1850,500 Q1825,450 1800,500 Q1775,550 1750,500 Z"/>
    <path d="M200,850 Q225,800 250,850 Q275,900 300,850 Q275,800 250,850 Q225,900 200,850 Z"/>
    <path d="M500,780 Q525,730 550,780 Q575,830 600,780 Q575,730 550,780 Q525,830 500,780 Z"/>
    <path d="M800,900 Q825,850 850,900 Q875,950 900,900 Q875,850 850,900 Q825,950 800,900 Z"/>
    <path d="M1100,820 Q1125,770 1150,820 Q1175,870 1200,820 Q1175,770 1150,820 Q1125,870 1100,820 Z"/>
    <path d="M1400,880 Q1425,830 1450,880 Q1475,930 1500,880 Q1475,830 1450,880 Q1425,930 1400,880 Z"/>
    <path d="M1700,800 Q1725,750 1750,800 Q1775,850 1800,800 Q1775,750 1750,800 Q1725,850 1700,800 Z"/>
  </g>
  <text x="960" y="540" text-anchor="middle" font-family="Arial, sans-serif" font-size="48" fill="#fff" opacity="0.8">恋爱天使 Love Angel</text>
</svg>
