<svg xmlns="http://www.w3.org/2000/svg" viewBox="0 0 1920 1080">
  <defs>
    <linearGradient id="bg18-gradient" x1="0%" y1="100%" x2="0%" y2="0%">
      <stop offset="0%" style="stop-color:#2c1810;stop-opacity:1" />
      <stop offset="40%" style="stop-color:#8b4513;stop-opacity:1" />
      <stop offset="100%" style="stop-color:#daa520;stop-opacity:1" />
    </linearGradient>
  </defs>
  <rect width="100%" height="100%" fill="url(#bg18-gradient)"/>
  <g fill="#ffd700" opacity="0.3">
    <path d="M100,700 Q150,600 200,700 L200,1080 L100,1080 Z"/>
    <path d="M300,650 Q380,500 460,650 L460,1080 L300,1080 Z"/>
    <path d="M500,720 Q560,620 620,720 L620,1080 L500,1080 Z"/>
    <path d="M700,680 Q800,480 900,680 L900,1080 L700,1080 Z"/>
    <path d="M950,750 Q1000,650 1050,750 L1050,1080 L950,1080 Z"/>
    <path d="M1100,700 Q1180,550 1260,700 L1260,1080 L1100,1080 Z"/>
    <path d="M1300,680 Q1360,580 1420,680 L1420,1080 L1300,1080 Z"/>
    <path d="M1500,720 Q1600,520 1700,720 L1700,1080 L1500,1080 Z"/>
    <path d="M1750,680 Q1820,580 1890,680 L1890,1080 L1750,1080 Z"/>
  </g>
  <g fill="#ff6347" opacity="0.4">
    <circle cx="200" cy="750" r="8"/>
    <circle cx="350" cy="700" r="6"/>
    <circle cx="550" cy="760" r="7"/>
    <circle cx="780" cy="720" r="9"/>
    <circle cx="1000" cy="780" r="6"/>
    <circle cx="1180" cy="740" r="8"/>
    <circle cx="1350" cy="720" r="7"/>
    <circle cx="1580" cy="760" r="9"/>
    <circle cx="1800" cy="720" r="6"/>
  </g>
  <text x="960" y="400" text-anchor="middle" font-family="Arial, sans-serif" font-size="48" fill="#fff" opacity="0.8">秋叶精灵 Autumn Leaf Spirit</text>
</svg>
