<svg xmlns="http://www.w3.org/2000/svg" viewBox="0 0 1920 1080">
  <defs>
    <linearGradient id="bg19-gradient" x1="0%" y1="0%" x2="100%" y2="100%">
      <stop offset="0%" style="stop-color:#e8f5e9;stop-opacity:1" />
      <stop offset="50%" style="stop-color:#c8e6c9;stop-opacity:1" />
      <stop offset="100%" style="stop-color:#a5d6a7;stop-opacity:1" />
    </linearGradient>
  </defs>
  <rect width="100%" height="100%" fill="url(#bg19-gradient)"/>
  <g stroke="#4caf50" stroke-width="2" fill="none" opacity="0.3">
    <path d="M100,600 Q200,400 300,600 Q400,800 500,600 Q600,400 700,600"/>
    <path d="M700,600 Q800,800 900,600 Q1000,400 1100,600 Q1200,800 1300,600"/>
    <path d="M1300,600 Q1400,400 1500,600 Q1600,800 1700,600 Q1800,400 1900,600"/>
  </g>
  <g fill="#81c784" opacity="0.4">
    <ellipse cx="200" cy="300" rx="30" ry="60" transform="rotate(-30 200 300)"/>
    <ellipse cx="400" cy="250" rx="25" ry="50" transform="rotate(20 400 250)"/>
    <ellipse cx="600" cy="350" rx="35" ry="70" transform="rotate(-15 600 350)"/>
    <ellipse cx="850" cy="280" rx="28" ry="56" transform="rotate(25 850 280)"/>
    <ellipse cx="1100" cy="320" rx="32" ry="64" transform="rotate(-20 1100 320)"/>
    <ellipse cx="1350" cy="260" rx="26" ry="52" transform="rotate(30 1350 260)"/>
    <ellipse cx="1600" cy="340" rx="34" ry="68" transform="rotate(-25 1600 340)"/>
    <ellipse cx="1800" cy="290" rx="24" ry="48" transform="rotate(15 1800 290)"/>
  </g>
  <g fill="#66bb6a" opacity="0.3">
    <ellipse cx="150" cy="800" rx="40" ry="80" transform="rotate(35 150 800)"/>
    <ellipse cx="450" cy="850" rx="45" ry="90" transform="rotate(-25 450 850)"/>
    <ellipse cx="750" cy="780" rx="38" ry="76" transform="rotate(20 750 780)"/>
    <ellipse cx="1050" cy="830" rx="42" ry="84" transform="rotate(-30 1050 830)"/>
    <ellipse cx="1350" cy="800" rx="36" ry="72" transform="rotate(25 1350 800)"/>
    <ellipse cx="1650" cy="860" rx="44" ry="88" transform="rotate(-20 1650 860)"/>
  </g>
  <text x="960" y="540" text-anchor="middle" font-family="Arial, sans-serif" font-size="48" fill="#2e7d32" opacity="0.6">森林仙女 Forest Nymph</text>
</svg>
