<svg xmlns="http://www.w3.org/2000/svg" viewBox="0 0 1920 1080">
  <defs>
    <linearGradient id="bg20-gradient" x1="0%" y1="0%" x2="100%" y2="100%">
      <stop offset="0%" style="stop-color:#ff9a9e;stop-opacity:1" />
      <stop offset="25%" style="stop-color:#fecfef;stop-opacity:1" />
      <stop offset="50%" style="stop-color:#fecfef;stop-opacity:1" />
      <stop offset="75%" style="stop-color:#fad0c4;stop-opacity:1" />
      <stop offset="100%" style="stop-color:#ffd1ff;stop-opacity:1" />
    </linearGradient>
    <radialGradient id="sparkle" cx="50%" cy="50%" r="50%">
      <stop offset="0%" style="stop-color:#fff;stop-opacity:1" />
      <stop offset="50%" style="stop-color:#fff;stop-opacity:0.5" />
      <stop offset="100%" style="stop-color:#fff;stop-opacity:0" />
    </radialGradient>
  </defs>
  <rect width="100%" height="100%" fill="url(#bg20-gradient)"/>
  <g>
    <circle cx="150" cy="150" r="20" fill="url(#sparkle)"/>
    <circle cx="350" cy="250" r="15" fill="url(#sparkle)"/>
    <circle cx="550" cy="100" r="25" fill="url(#sparkle)"/>
    <circle cx="750" cy="300" r="18" fill="url(#sparkle)"/>
    <circle cx="950" cy="180" r="22" fill="url(#sparkle)"/>
    <circle cx="1150" cy="250" r="16" fill="url(#sparkle)"/>
    <circle cx="1350" cy="120" r="24" fill="url(#sparkle)"/>
    <circle cx="1550" cy="280" r="14" fill="url(#sparkle)"/>
    <circle cx="1750" cy="200" r="20" fill="url(#sparkle)"/>
    <circle cx="250" cy="500" r="18" fill="url(#sparkle)"/>
    <circle cx="450" cy="600" r="22" fill="url(#sparkle)"/>
    <circle cx="650" cy="450" r="16" fill="url(#sparkle)"/>
    <circle cx="850" cy="550" r="24" fill="url(#sparkle)"/>
    <circle cx="1050" cy="480" r="14" fill="url(#sparkle)"/>
    <circle cx="1250" cy="580" r="20" fill="url(#sparkle)"/>
    <circle cx="1450" cy="420" r="18" fill="url(#sparkle)"/>
    <circle cx="1650" cy="520" r="22" fill="url(#sparkle)"/>
    <circle cx="1850" cy="460" r="16" fill="url(#sparkle)"/>
    <circle cx="200" cy="800" r="22" fill="url(#sparkle)"/>
    <circle cx="400" cy="900" r="18" fill="url(#sparkle)"/>
    <circle cx="600" cy="750" r="24" fill="url(#sparkle)"/>
    <circle cx="800" cy="850" r="16" fill="url(#sparkle)"/>
    <circle cx="1000" cy="780" r="20" fill="url(#sparkle)"/>
    <circle cx="1200" cy="880" r="14" fill="url(#sparkle)"/>
    <circle cx="1400" cy="720" r="22" fill="url(#sparkle)"/>
    <circle cx="1600" cy="820" r="18" fill="url(#sparkle)"/>
    <circle cx="1800" cy="760" r="24" fill="url(#sparkle)"/>
  </g>
  <text x="960" y="540" text-anchor="middle" font-family="Arial, sans-serif" font-size="48" fill="#d63384" opacity="0.7">梦幻少女 Dream Girl</text>
</svg>
