<svg xmlns="http://www.w3.org/2000/svg" viewBox="0 0 1920 1080">
  <defs>
    <linearGradient id="bg6-gradient" x1="0%" y1="0%" x2="100%" y2="100%">
      <stop offset="0%" style="stop-color:#667eea;stop-opacity:1" />
      <stop offset="50%" style="stop-color:#764ba2;stop-opacity:1" />
      <stop offset="100%" style="stop-color:#f093fb;stop-opacity:1" />
    </linearGradient>
  </defs>
  <rect width="100%" height="100%" fill="url(#bg6-gradient)"/>
  <g fill="#fff" opacity="0.4">
    <circle cx="150" cy="100" r="5"/>
    <circle cx="350" cy="200" r="3"/>
    <circle cx="550" cy="80" r="6"/>
    <circle cx="750" cy="300" r="4"/>
    <circle cx="950" cy="150" r="5"/>
    <circle cx="1150" cy="250" r="3"/>
    <circle cx="1350" cy="100" r="6"/>
    <circle cx="1550" cy="350" r="4"/>
    <circle cx="1750" cy="200" r="5"/>
    <circle cx="250" cy="500" r="4"/>
    <circle cx="500" cy="600" r="6"/>
    <circle cx="800" cy="450" r="3"/>
    <circle cx="1100" cy="550" r="5"/>
    <circle cx="1400" cy="500" r="4"/>
    <circle cx="1700" cy="600" r="6"/>
    <circle cx="200" cy="800" r="5"/>
    <circle cx="450" cy="900" r="3"/>
    <circle cx="700" cy="750" r="6"/>
    <circle cx="1000" cy="850" r="4"/>
    <circle cx="1300" cy="950" r="5"/>
    <circle cx="1600" cy="800" r="3"/>
    <circle cx="1850" cy="900" r="6"/>
  </g>
  <text x="960" y="540" text-anchor="middle" font-family="Arial, sans-serif" font-size="48" fill="#fff" opacity="0.8">魔法少女 Magical Girl</text>
</svg>
