<svg xmlns="http://www.w3.org/2000/svg" viewBox="0 0 1920 1080">
  <defs>
    <linearGradient id="bg7-gradient" x1="0%" y1="100%" x2="100%" y2="0%">
      <stop offset="0%" style="stop-color:#11998e;stop-opacity:1" />
      <stop offset="100%" style="stop-color:#38ef7d;stop-opacity:1" />
    </linearGradient>
  </defs>
  <rect width="100%" height="100%" fill="url(#bg7-gradient)"/>
  <g fill="#fff" opacity="0.3">
    <ellipse cx="200" cy="200" rx="80" ry="40" transform="rotate(30 200 200)"/>
    <ellipse cx="600" cy="350" rx="100" ry="50" transform="rotate(-20 600 350)"/>
    <ellipse cx="1000" cy="150" rx="70" ry="35" transform="rotate(45 1000 150)"/>
    <ellipse cx="1400" cy="300" rx="90" ry="45" transform="rotate(-30 1400 300)"/>
    <ellipse cx="1750" cy="180" rx="60" ry="30" transform="rotate(15 1750 180)"/>
    <ellipse cx="300" cy="650" rx="85" ry="42" transform="rotate(-45 300 650)"/>
    <ellipse cx="700" cy="800" rx="75" ry="38" transform="rotate(25 700 800)"/>
    <ellipse cx="1100" cy="700" rx="95" ry="47" transform="rotate(-15 1100 700)"/>
    <ellipse cx="1500" cy="850" rx="65" ry="33" transform="rotate(35 1500 850)"/>
    <ellipse cx="1800" cy="600" rx="55" ry="28" transform="rotate(-25 1800 600)"/>
  </g>
  <text x="960" y="540" text-anchor="middle" font-family="Arial, sans-serif" font-size="48" fill="#fff" opacity="0.8">翠绿仙子 Emerald Fairy</text>
</svg>
