<svg xmlns="http://www.w3.org/2000/svg" viewBox="0 0 1920 1080">
  <defs>
    <linearGradient id="bg8-gradient" x1="0%" y1="0%" x2="0%" y2="100%">
      <stop offset="0%" style="stop-color:#0f0c29;stop-opacity:1" />
      <stop offset="50%" style="stop-color:#302b63;stop-opacity:1" />
      <stop offset="100%" style="stop-color:#24243e;stop-opacity:1" />
    </linearGradient>
    <radialGradient id="moon-glow" cx="50%" cy="50%" r="50%">
      <stop offset="0%" style="stop-color:#fffde7;stop-opacity:1" />
      <stop offset="70%" style="stop-color:#fff9c4;stop-opacity:0.8" />
      <stop offset="100%" style="stop-color:#fff9c4;stop-opacity:0" />
    </radialGradient>
  </defs>
  <rect width="100%" height="100%" fill="url(#bg8-gradient)"/>
  <circle cx="1500" cy="200" r="80" fill="url(#moon-glow)"/>
  <g fill="#fff" opacity="0.6">
    <circle cx="100" cy="100" r="2"/>
    <circle cx="250" cy="150" r="1.5"/>
    <circle cx="400" cy="80" r="2"/>
    <circle cx="600" cy="200" r="1"/>
    <circle cx="800" cy="120" r="2.5"/>
    <circle cx="1000" cy="180" r="1.5"/>
    <circle cx="1200" cy="100" r="2"/>
    <circle cx="180" cy="350" r="1.5"/>
    <circle cx="350" cy="420" r="2"/>
    <circle cx="550" cy="380" r="1"/>
    <circle cx="750" cy="500" r="2.5"/>
    <circle cx="950" cy="450" r="1.5"/>
    <circle cx="1150" cy="520" r="2"/>
    <circle cx="1350" cy="400" r="1"/>
    <circle cx="1600" cy="480" r="2.5"/>
    <circle cx="1800" cy="350" r="1.5"/>
    <circle cx="120" cy="700" r="2"/>
    <circle cx="320" cy="800" r="1.5"/>
    <circle cx="520" cy="750" r="2"/>
    <circle cx="720" cy="850" r="1"/>
    <circle cx="920" cy="720" r="2.5"/>
    <circle cx="1120" cy="900" r="1.5"/>
    <circle cx="1320" cy="780" r="2"/>
    <circle cx="1520" cy="880" r="1"/>
    <circle cx="1720" cy="700" r="2.5"/>
    <circle cx="1900" cy="850" r="1.5"/>
  </g>
  <text x="960" y="540" text-anchor="middle" font-family="Arial, sans-serif" font-size="48" fill="#fff" opacity="0.8">月夜精灵 Moonlight Spirit</text>
</svg>
