<svg xmlns="http://www.w3.org/2000/svg" viewBox="0 0 1920 1080">
  <defs>
    <linearGradient id="bg9-gradient" x1="0%" y1="0%" x2="100%" y2="100%">
      <stop offset="0%" style="stop-color:#ff6b6b;stop-opacity:1" />
      <stop offset="50%" style="stop-color:#ff8e53;stop-opacity:1" />
      <stop offset="100%" style="stop-color:#feca57;stop-opacity:1" />
    </linearGradient>
  </defs>
  <rect width="100%" height="100%" fill="url(#bg9-gradient)"/>
  <g fill="#fff" opacity="0.3">
    <polygon points="200,100 230,170 180,150" />
    <polygon points="500,200 540,280 470,250" />
    <polygon points="800,80 850,160 760,130" />
    <polygon points="1100,250 1150,330 1060,300" />
    <polygon points="1400,150 1450,230 1360,200" />
    <polygon points="1700,100 1750,180 1660,150" />
    <polygon points="300,500 350,580 260,550" />
    <polygon points="600,450 650,530 560,500" />
    <polygon points="900,550 950,630 860,600" />
    <polygon points="1200,400 1250,480 1160,450" />
    <polygon points="1500,500 1550,580 1460,550" />
    <polygon points="1800,450 1850,530 1760,500" />
    <polygon points="150,800 200,880 110,850" />
    <polygon points="450,750 500,830 410,800" />
    <polygon points="750,850 800,930 710,900" />
    <polygon points="1050,700 1100,780 1010,750" />
    <polygon points="1350,800 1400,880 1310,850" />
    <polygon points="1650,750 1700,830 1610,800" />
  </g>
  <text x="960" y="540" text-anchor="middle" font-family="Arial, sans-serif" font-size="48" fill="#fff" opacity="0.8">落日少女 Sunset Girl</text>
</svg>
